<?xml version="1.0" encoding="UTF-8" standalone="no"?>
<!DOCTYPE svg PUBLIC "-//W3C//DTD SVG 1.1//EN" "http://www.w3.org/Graphics/SVG/1.1/DTD/svg11.dtd">
<svg width="100%" height="100%" viewBox="0 0 81 81" version="1.1" xmlns="http://www.w3.org/2000/svg" xmlns:xlink="http://www.w3.org/1999/xlink" xml:space="preserve" xmlns:serif="http://www.serif.com/" style="fill-rule:evenodd;clip-rule:evenodd;stroke-linejoin:round;stroke-miterlimit:2;">
    <g transform="matrix(1,0,0,1,-975.995,-7399.53)">
        <g transform="matrix(1.5,0,0,1.09728,-3.06848,7169.83)">
            <g id="times-circle" transform="matrix(2.22279,0,0,3.03858,652.709,203.264)">
                <path d="M17.953,17.531C17.953,17.265 17.844,17.015 17.656,16.828L14.828,14L17.656,11.172C17.843,10.985 17.953,10.734 17.953,10.469C17.953,10.204 17.844,9.938 17.656,9.75L16.25,8.344C16.063,8.157 15.797,8.047 15.531,8.047C15.265,8.047 15.015,8.156 14.828,8.344L12,11.172L9.172,8.344C8.985,8.157 8.734,8.047 8.469,8.047C8.204,8.047 7.938,8.156 7.75,8.344L6.344,9.75C6.157,9.937 6.047,10.203 6.047,10.469C6.047,10.735 6.156,10.985 6.344,11.172L9.172,14L6.344,16.828C6.157,17.015 6.047,17.266 6.047,17.531C6.047,17.796 6.156,18.062 6.344,18.25L7.75,19.656C7.937,19.843 8.203,19.953 8.469,19.953C8.735,19.953 8.985,19.844 9.172,19.656L12,16.828L14.828,19.656C15.015,19.843 15.266,19.953 15.531,19.953C15.796,19.953 16.062,19.844 16.25,19.656L17.656,18.25C17.843,18.063 17.953,17.797 17.953,17.531ZM24,14C24,20.625 18.625,26 12,26C5.375,26 0,20.625 0,14C0,7.375 5.375,2 12,2C18.625,2 24,7.375 24,14Z" style="fill:rgb(64,64,64);fill-rule:nonzero;"/>
            </g>
        </g>
    </g>
</svg>
